<svg xmlns="http://www.w3.org/2000/svg" xmlns:xlink="http://www.w3.org/1999/xlink" width="1080" zoomAndPan="magnify" viewBox="0 0 810 809.999993" height="1080" preserveAspectRatio="xMidYMid meet" version="1.0"><path fill="#f9e902" d="M 97.789062 311.414062 L 138.996094 294.601562 C 139.613281 294.191406 140.636719 294.191406 141.457031 294.601562 L 315.921875 365.535156 C 317.359375 366.148438 318.175781 367.789062 317.5625 369.226562 L 309.976562 387.882812 C 309.566406 389.113281 308.132812 389.933594 306.695312 389.726562 L 122.1875 354.464844 C 121.367188 354.257812 120.75 353.851562 120.339844 353.234375 L 96.355469 315.71875 L 96.148438 315.308594 C 95.535156 313.871094 96.148438 312.027344 97.789062 311.414062 Z M 167.699219 568.085938 L 123.828125 560.089844 C 122.1875 559.886719 121.160156 558.246094 121.570312 556.8125 L 121.777344 556.402344 L 136.949219 514.785156 C 137.152344 513.964844 137.769531 513.347656 138.585938 513.144531 L 311.824219 440.570312 C 313.257812 439.953125 314.691406 440.570312 315.511719 441.800781 L 326.789062 458.40625 C 327.609375 459.636719 327.402344 461.480469 325.96875 462.503906 L 169.953125 568.085938 C 169.132812 568.085938 168.3125 568.292969 167.699219 568.085938 Z M 642.300781 241.707031 L 686.171875 249.703125 C 687.8125 249.910156 688.839844 251.550781 688.429688 252.984375 L 688.222656 253.394531 L 673.050781 295.011719 C 672.847656 295.832031 672.230469 296.445312 671.414062 296.652344 L 498.175781 369.636719 C 496.742188 370.25 495.308594 369.636719 494.488281 368.40625 L 483.210938 351.800781 C 482.390625 350.570312 482.597656 348.722656 484.03125 347.90625 L 640.046875 242.324219 C 640.867188 241.914062 641.480469 241.707031 642.300781 241.707031 Z M 241.707031 167.699219 L 249.703125 123.828125 C 249.910156 122.1875 251.550781 121.160156 252.984375 121.570312 L 253.394531 121.777344 L 295.011719 136.949219 C 295.832031 137.152344 296.445312 137.769531 296.652344 138.585938 L 369.226562 311.824219 C 369.839844 313.257812 369.226562 314.691406 367.996094 315.511719 L 351.390625 326.789062 C 350.160156 327.609375 348.3125 327.402344 347.289062 325.96875 L 241.707031 169.953125 C 241.914062 169.132812 241.707031 168.3125 241.707031 167.699219 Z M 568.085938 642.300781 L 560.089844 686.171875 C 559.886719 687.8125 558.246094 688.839844 556.8125 688.429688 L 556.402344 688.222656 L 514.785156 673.050781 C 513.964844 672.847656 513.347656 672.230469 513.144531 671.414062 L 440.363281 498.175781 C 439.75 496.742188 440.363281 495.308594 441.59375 494.488281 L 458.199219 483.210938 C 459.429688 482.390625 461.277344 482.597656 462.300781 484.03125 L 567.882812 640.046875 C 568.085938 640.867188 568.292969 641.480469 568.085938 642.300781 Z M 498.382812 97.789062 L 515.195312 138.996094 C 515.605469 139.613281 515.605469 140.636719 515.195312 141.457031 L 444.464844 315.71875 C 443.851562 317.152344 442.210938 317.972656 440.773438 317.359375 L 422.117188 309.773438 C 420.886719 309.363281 420.066406 307.925781 420.273438 306.492188 L 455.535156 121.980469 C 455.742188 121.160156 456.148438 120.546875 456.765625 120.136719 L 494.28125 96.355469 L 494.691406 96.148438 C 496.128906 95.535156 497.769531 96.148438 498.382812 97.789062 Z M 311.414062 712.210938 L 294.601562 671.003906 C 294.191406 670.386719 294.191406 669.363281 294.601562 668.542969 L 365.535156 494.078125 C 366.148438 492.640625 367.789062 491.820312 369.226562 492.4375 L 387.882812 500.023438 C 389.113281 500.433594 389.929688 501.867188 389.726562 503.304688 L 354.464844 687.8125 C 354.257812 688.632812 353.851562 689.25 353.234375 689.65625 L 315.71875 713.644531 L 315.308594 713.851562 C 313.871094 714.464844 312.027344 713.644531 311.414062 712.210938 Z M 712.210938 498.382812 L 671.003906 515.195312 C 670.386719 515.605469 669.363281 515.605469 668.542969 515.195312 L 494.078125 444.257812 C 492.640625 443.644531 491.820312 442.003906 492.4375 440.570312 L 500.023438 421.914062 C 500.433594 420.683594 501.867188 419.863281 503.304688 420.066406 L 687.8125 455.332031 C 688.632812 455.535156 689.25 455.945312 689.65625 456.558594 L 713.234375 494.078125 L 713.441406 494.488281 C 714.464844 496.128906 713.644531 497.769531 712.210938 498.382812 Z M 712.210938 498.382812 " fill-opacity="1" fill-rule="evenodd"/><path fill="#f8b613" d="M 558.449219 122.800781 L 566.855469 166.675781 C 567.0625 167.289062 566.855469 168.109375 566.445312 168.722656 L 461.890625 325.351562 C 461.070312 326.582031 459.226562 326.992188 457.996094 326.171875 L 441.390625 315.101562 C 440.160156 314.28125 439.75 312.847656 440.160156 311.617188 L 511.707031 137.769531 C 511.914062 137.152344 512.527344 136.539062 513.347656 136.128906 L 554.761719 120.75 L 555.375 120.546875 C 556.605469 120.136719 558.039062 121.160156 558.449219 122.800781 Z M 139.613281 517.039062 L 98.199219 500.226562 C 96.765625 499.613281 95.945312 497.972656 96.558594 496.539062 L 96.765625 495.921875 L 119.933594 458.40625 C 120.339844 457.789062 121.160156 457.175781 121.777344 457.175781 L 306.082031 420.886719 C 307.515625 420.683594 308.953125 421.503906 309.363281 422.734375 L 316.949219 441.183594 C 317.5625 442.621094 316.949219 444.257812 315.308594 444.875 L 141.253906 517.039062 C 141.253906 517.449219 140.433594 517.449219 139.613281 517.039062 Z M 292.960938 139.613281 L 309.773438 98.199219 C 310.386719 96.765625 312.027344 95.945312 313.460938 96.558594 L 314.078125 96.765625 L 351.59375 119.933594 C 352.210938 120.339844 352.824219 121.160156 352.824219 121.777344 L 389.113281 306.082031 C 389.316406 307.515625 388.496094 308.953125 387.265625 309.363281 L 368.816406 316.949219 C 367.378906 317.5625 365.742188 316.949219 365.125 315.308594 L 292.960938 141.253906 C 292.550781 141.253906 292.550781 140.433594 292.960938 139.613281 Z M 517.039062 670.183594 L 500.226562 711.59375 C 499.613281 713.03125 497.972656 713.851562 496.539062 713.234375 L 495.921875 713.03125 L 458.40625 689.863281 C 457.789062 689.453125 457.175781 688.632812 457.175781 688.019531 L 420.886719 503.714844 C 420.683594 502.277344 421.503906 500.84375 422.734375 500.433594 L 441.183594 492.847656 C 442.621094 492.230469 444.257812 492.847656 444.875 494.488281 L 517.039062 668.542969 C 517.449219 668.746094 517.449219 669.566406 517.039062 670.183594 Z M 122.800781 251.550781 L 166.675781 243.144531 C 167.289062 242.9375 168.109375 243.144531 168.722656 243.554688 L 325.351562 348.109375 C 326.582031 348.929688 326.992188 350.773438 326.171875 352.003906 L 315.101562 368.609375 C 314.28125 369.839844 312.847656 370.25 311.617188 369.839844 L 137.769531 298.292969 C 137.152344 298.085938 136.539062 297.472656 136.128906 296.652344 L 120.75 255.238281 L 120.546875 254.625 C 120.136719 253.394531 121.160156 251.960938 122.800781 251.550781 Z M 687.199219 558.449219 L 643.324219 566.855469 C 642.710938 567.0625 641.890625 566.855469 641.277344 566.445312 L 484.648438 461.890625 C 483.417969 461.070312 483.007812 459.226562 483.828125 457.996094 L 494.898438 441.390625 C 495.71875 440.160156 497.152344 439.75 498.382812 440.160156 L 672.230469 511.707031 C 672.847656 511.914062 673.460938 512.527344 673.871094 513.347656 L 689.25 554.761719 L 689.453125 555.375 C 689.863281 556.605469 688.839844 558.039062 687.199219 558.449219 Z M 670.183594 292.960938 L 711.59375 309.773438 C 713.03125 310.386719 713.851562 312.027344 713.234375 313.460938 L 713.03125 314.078125 L 689.863281 351.59375 C 689.453125 352.210938 688.632812 352.824219 688.019531 352.824219 L 503.714844 389.113281 C 502.277344 389.316406 500.84375 388.496094 500.433594 387.265625 L 492.847656 368.816406 C 492.230469 367.378906 492.847656 365.742188 494.488281 365.125 L 668.542969 292.960938 C 668.746094 292.550781 669.566406 292.550781 670.183594 292.960938 Z M 251.550781 687.199219 L 243.144531 643.324219 C 242.9375 642.710938 243.144531 641.890625 243.554688 641.277344 L 348.109375 484.648438 C 348.929688 483.417969 350.773438 483.007812 352.003906 483.828125 L 368.609375 494.898438 C 369.839844 495.71875 370.25 497.152344 369.839844 498.382812 L 298.292969 672.230469 C 298.085938 672.847656 297.472656 673.460938 296.652344 673.871094 L 255.238281 689.25 L 254.625 689.453125 C 253.394531 689.863281 251.960938 688.839844 251.550781 687.199219 Z M 251.550781 687.199219 " fill-opacity="1" fill-rule="evenodd"/><path fill="#f78c22" d="M 230.433594 664.238281 L 118.703125 691.296875 L 145.761719 579.566406 L 322.484375 461.070312 L 335.808594 474.394531 L 349.132812 487.722656 Z M 98.199219 464.761719 L 0 404.898438 L 98.199219 345.035156 L 306.902344 386.242188 L 306.902344 423.554688 Z M 464.761719 711.800781 L 404.898438 810 L 345.035156 711.800781 L 386.242188 503.097656 L 423.554688 503.097656 Z M 464.761719 98.199219 L 404.898438 0 L 345.035156 98.199219 L 386.242188 306.902344 L 423.554688 306.902344 Z M 664.238281 230.433594 L 691.296875 118.703125 L 579.566406 145.761719 L 461.070312 322.484375 L 474.394531 335.808594 L 487.722656 349.132812 Z M 711.800781 464.761719 L 810 404.898438 L 711.800781 345.035156 L 503.097656 386.242188 L 503.097656 423.554688 Z M 145.761719 230.433594 L 118.703125 118.703125 L 230.433594 145.761719 L 348.929688 322.484375 L 335.605469 335.808594 L 322.277344 349.132812 Z M 579.566406 664.238281 L 691.296875 691.296875 L 664.238281 579.566406 L 487.515625 461.070312 L 474.191406 474.394531 L 460.867188 487.722656 Z M 579.566406 664.238281 " fill-opacity="1" fill-rule="evenodd"/><path fill="#f9e902" d="M 527.289062 404.898438 C 527.289062 406.902344 527.238281 408.902344 527.140625 410.902344 C 527.042969 412.902344 526.894531 414.902344 526.699219 416.894531 C 526.503906 418.886719 526.257812 420.875 525.964844 422.855469 C 525.671875 424.835938 525.328125 426.808594 524.9375 428.773438 C 524.546875 430.738281 524.109375 432.691406 523.621094 434.636719 C 523.132812 436.578125 522.601562 438.507812 522.019531 440.425781 C 521.4375 442.34375 520.808594 444.242188 520.132812 446.128906 C 519.460938 448.015625 518.738281 449.882812 517.972656 451.734375 C 517.207031 453.585938 516.394531 455.414062 515.539062 457.226562 C 514.683594 459.039062 513.78125 460.824219 512.835938 462.59375 C 511.894531 464.359375 510.90625 466.101562 509.875 467.820312 C 508.847656 469.539062 507.773438 471.230469 506.664062 472.894531 C 505.550781 474.558594 504.398438 476.199219 503.203125 477.804688 C 502.011719 479.414062 500.777344 480.992188 499.507812 482.542969 C 498.238281 484.089844 496.929688 485.605469 495.582031 487.089844 C 494.238281 488.574219 492.859375 490.023438 491.441406 491.441406 C 490.023438 492.859375 488.574219 494.238281 487.089844 495.582031 C 485.605469 496.929688 484.089844 498.238281 482.542969 499.507812 C 480.992188 500.777344 479.414062 502.011719 477.804688 503.203125 C 476.199219 504.398438 474.558594 505.550781 472.894531 506.664062 C 471.230469 507.773438 469.539062 508.847656 467.820312 509.875 C 466.101562 510.90625 464.359375 511.894531 462.59375 512.835938 C 460.824219 513.78125 459.039062 514.683594 457.226562 515.539062 C 455.414062 516.394531 453.585938 517.207031 451.734375 517.972656 C 449.882812 518.738281 448.015625 519.460938 446.128906 520.132812 C 444.242188 520.808594 442.34375 521.4375 440.425781 522.019531 C 438.507812 522.601562 436.578125 523.132812 434.636719 523.621094 C 432.691406 524.109375 430.738281 524.546875 428.773438 524.9375 C 426.808594 525.328125 424.835938 525.671875 422.855469 525.964844 C 420.875 526.257812 418.886719 526.503906 416.894531 526.699219 C 414.902344 526.894531 412.902344 527.042969 410.902344 527.140625 C 408.902344 527.238281 406.902344 527.289062 404.898438 527.289062 C 402.894531 527.289062 400.894531 527.238281 398.890625 527.140625 C 396.890625 527.042969 394.894531 526.894531 392.902344 526.699219 C 390.90625 526.503906 388.921875 526.257812 386.9375 525.964844 C 384.957031 525.671875 382.984375 525.328125 381.019531 524.9375 C 379.054688 524.546875 377.101562 524.109375 375.160156 523.621094 C 373.214844 523.132812 371.285156 522.601562 369.367188 522.019531 C 367.453125 521.4375 365.550781 520.808594 363.664062 520.132812 C 361.777344 519.460938 359.910156 518.738281 358.058594 517.972656 C 356.210938 517.207031 354.378906 516.394531 352.566406 515.539062 C 350.757812 514.683594 348.96875 513.78125 347.203125 512.835938 C 345.4375 511.894531 343.695312 510.90625 341.976562 509.875 C 340.257812 508.847656 338.566406 507.773438 336.898438 506.664062 C 335.234375 505.550781 333.597656 504.398438 331.988281 503.203125 C 330.378906 502.011719 328.800781 500.777344 327.253906 499.507812 C 325.703125 498.238281 324.1875 496.929688 322.703125 495.582031 C 321.21875 494.238281 319.769531 492.859375 318.351562 491.441406 C 316.9375 490.023438 315.554688 488.574219 314.210938 487.089844 C 312.867188 485.605469 311.558594 484.089844 310.289062 482.542969 C 309.015625 480.992188 307.785156 479.414062 306.589844 477.804688 C 305.398438 476.199219 304.246094 474.558594 303.132812 472.894531 C 302.019531 471.230469 300.949219 469.539062 299.917969 467.820312 C 298.890625 466.101562 297.902344 464.359375 296.957031 462.59375 C 296.011719 460.824219 295.113281 459.039062 294.257812 457.226562 C 293.398438 455.414062 292.589844 453.585938 291.820312 451.734375 C 291.054688 449.882812 290.335938 448.015625 289.660156 446.128906 C 288.984375 444.242188 288.355469 442.34375 287.777344 440.425781 C 287.195312 438.507812 286.660156 436.578125 286.171875 434.636719 C 285.6875 432.691406 285.25 430.738281 284.855469 428.773438 C 284.464844 426.808594 284.125 424.835938 283.832031 422.855469 C 283.535156 420.875 283.292969 418.886719 283.09375 416.894531 C 282.898438 414.902344 282.75 412.902344 282.652344 410.902344 C 282.554688 408.902344 282.503906 406.902344 282.503906 404.898438 C 282.503906 402.894531 282.554688 400.894531 282.652344 398.890625 C 282.75 396.890625 282.898438 394.894531 283.09375 392.902344 C 283.292969 390.90625 283.535156 388.921875 283.832031 386.9375 C 284.125 384.957031 284.464844 382.984375 284.855469 381.019531 C 285.25 379.054688 285.6875 377.101562 286.171875 375.160156 C 286.660156 373.214844 287.195312 371.285156 287.777344 369.367188 C 288.355469 367.453125 288.984375 365.550781 289.660156 363.664062 C 290.335938 361.777344 291.054688 359.910156 291.820312 358.058594 C 292.589844 356.210938 293.398438 354.378906 294.257812 352.566406 C 295.113281 350.757812 296.011719 348.96875 296.957031 347.203125 C 297.902344 345.4375 298.890625 343.695312 299.917969 341.976562 C 300.949219 340.257812 302.019531 338.566406 303.132812 336.898438 C 304.246094 335.234375 305.398438 333.597656 306.589844 331.988281 C 307.785156 330.378906 309.015625 328.800781 310.289062 327.253906 C 311.558594 325.703125 312.867188 324.1875 314.210938 322.703125 C 315.554688 321.21875 316.9375 319.769531 318.351562 318.351562 C 319.769531 316.9375 321.21875 315.554688 322.703125 314.210938 C 324.1875 312.867188 325.703125 311.558594 327.253906 310.289062 C 328.800781 309.015625 330.378906 307.785156 331.988281 306.589844 C 333.597656 305.398438 335.234375 304.246094 336.898438 303.132812 C 338.566406 302.019531 340.257812 300.949219 341.976562 299.917969 C 343.695312 298.890625 345.4375 297.902344 347.203125 296.957031 C 348.96875 296.011719 350.757812 295.113281 352.566406 294.257812 C 354.378906 293.398438 356.210938 292.589844 358.058594 291.820312 C 359.910156 291.054688 361.777344 290.335938 363.664062 289.660156 C 365.550781 288.984375 367.453125 288.355469 369.367188 287.777344 C 371.285156 287.195312 373.214844 286.660156 375.160156 286.171875 C 377.101562 285.6875 379.054688 285.25 381.019531 284.855469 C 382.984375 284.464844 384.957031 284.125 386.9375 283.832031 C 388.921875 283.535156 390.90625 283.292969 392.902344 283.09375 C 394.894531 282.898438 396.890625 282.75 398.890625 282.652344 C 400.894531 282.554688 402.894531 282.503906 404.898438 282.503906 C 406.902344 282.503906 408.902344 282.554688 410.902344 282.652344 C 412.902344 282.75 414.902344 282.898438 416.894531 283.09375 C 418.886719 283.292969 420.875 283.535156 422.855469 283.832031 C 424.835938 284.125 426.808594 284.464844 428.773438 284.855469 C 430.738281 285.25 432.691406 285.6875 434.636719 286.171875 C 436.578125 286.660156 438.507812 287.195312 440.425781 287.777344 C 442.34375 288.355469 444.242188 288.984375 446.128906 289.660156 C 448.015625 290.335938 449.882812 291.054688 451.734375 291.820312 C 453.585938 292.589844 455.414062 293.398438 457.226562 294.257812 C 459.039062 295.113281 460.824219 296.011719 462.59375 296.957031 C 464.359375 297.902344 466.101562 298.890625 467.820312 299.917969 C 469.539062 300.949219 471.230469 302.019531 472.894531 303.132812 C 474.558594 304.246094 476.195312 305.398438 477.804688 306.589844 C 479.414062 307.785156 480.992188 309.015625 482.542969 310.289062 C 484.089844 311.558594 485.605469 312.867188 487.089844 314.210938 C 488.574219 315.554688 490.023438 316.9375 491.441406 318.351562 C 492.859375 319.769531 494.238281 321.21875 495.582031 322.703125 C 496.929688 324.1875 498.238281 325.703125 499.507812 327.253906 C 500.777344 328.800781 502.011719 330.378906 503.203125 331.988281 C 504.398438 333.597656 505.550781 335.234375 506.664062 336.898438 C 507.773438 338.566406 508.847656 340.257812 509.875 341.976562 C 510.90625 343.695312 511.894531 345.4375 512.835938 347.203125 C 513.78125 348.96875 514.683594 350.757812 515.539062 352.566406 C 516.394531 354.378906 517.207031 356.210938 517.972656 358.058594 C 518.738281 359.910156 519.460938 361.777344 520.132812 363.664062 C 520.808594 365.550781 521.4375 367.453125 522.019531 369.367188 C 522.601562 371.285156 523.132812 373.214844 523.621094 375.160156 C 524.109375 377.101562 524.546875 379.054688 524.9375 381.019531 C 525.328125 382.984375 525.671875 384.957031 525.964844 386.9375 C 526.257812 388.921875 526.503906 390.90625 526.699219 392.902344 C 526.894531 394.894531 527.042969 396.890625 527.140625 398.890625 C 527.238281 400.894531 527.289062 402.894531 527.289062 404.898438 Z M 527.289062 404.898438 " fill-opacity="1" fill-rule="nonzero"/></svg>